<?xml version="1.0" encoding="utf-8"?>
<!-- Generator: Adobe Illustrator 17.0.1, SVG Export Plug-In . SVG Version: 6.00 Build 0)  -->
<!DOCTYPE svg PUBLIC "-//W3C//DTD SVG 1.1//EN" "http://www.w3.org/Graphics/SVG/1.1/DTD/svg11.dtd">
<svg version="1.1" id="Layer_1" xmlns="http://www.w3.org/2000/svg" xmlns:xlink="http://www.w3.org/1999/xlink" x="0px" y="0px"
	 width="500px" height="150px"
	 viewBox="0 0 500 150"
	 enable-background="new 0 0 500 150"
	 xml:space="preserve">
<polygon fill="#FFFFFF" points="70.882,36.942 68.353,72.255 68.353,77.748 70.884,113.065 80.246,113.065 82.513,81.926 
	113.72,79.673 113.72,70.327 82.513,68.081 80.246,36.942 "/>
<polygon fill="#FFFFFF" points="36.252,70.332 36.252,79.661 62.224,81.234 61.669,75.707 61.671,74.298 62.239,68.767 "/>
<g id="Acumed">
	<path fill="#FFFFFF" d="M258.863,95.941c-11.631,0-18.601-3.879-18.601-12.871l0.002-27.898h7.797v27.4
		c0,4.625,6.177,6.292,10.793,6.292h0.015c4.619,0,10.796-1.667,10.796-6.292v-27.4h7.797l0.004,27.898
		C277.467,92.062,270.495,95.941,258.863,95.941"/>
	<path fill="#FFFFFF" d="M312.396,94.824V65.87c-0.701-1.385-2.524-3.044-5.134-3.73c-2.539-0.667-5.884-0.763-8.684,0.015
		c-2.717,0.752-4.416,2.233-5.016,3.774v28.894h-7.34V64.579c0-0.97,0.365-2.832,1.879-4.578c6.763-7.709,19.294-7.639,27.958-2.071
		c8.669-5.568,21.198-5.638,27.965,2.071c1.511,1.746,1.877,3.608,1.877,4.578v30.245h-7.342V65.93
		c-0.601-1.541-2.302-3.022-5.016-3.774c-2.798-0.778-6.14-0.682-8.682-0.015c-2.61,0.686-4.433,2.345-5.132,3.73v28.954H312.396z"
		/>
	<path fill="#FFFFFF" d="M154.27,64c1.291-0.494,2.954-0.992,4.743-1.421c3.531-0.849,6.626-1.178,9.154-1.178
		c2.321,0,5.615,0.406,8.128,2.342c1.629,1.255,2.372,2.962,2.372,3.817v1.627c0,0-20.51,4.672-24.588,6.254
		c-4.723,1.834-4.482,9.156-4.482,9.156s-0.122,3.208,1.47,5.623c1.47,2.325,5.412,5.715,18.345,5.72
		c4.247,0.002,11.014-0.849,16.573-2.667V63.615c-0.139-0.498-0.675-2.048-2.274-3.802c-2.385-2.614-5.914-4.273-10.499-5.185
		c-1.938-0.383-3.988-0.577-6.089-0.577c-5.403,0-10.191,1.441-12.854,2.343V64z M178.415,87.589
		c-8.041,2.206-17.227,0.958-18.663,0.609c-1.646-0.391-2.475-1.216-2.834-1.755c-0.626-0.949-0.603-2.212-0.603-2.212
		s-0.156-2.883,1.721-3.766c1.601-0.75,20.379-5.149,20.379-5.149V87.589z"/>
	<path fill="#FFFFFF" d="M387.415,86.47c-6.034,3.163-13.57,2.595-13.57,2.595s-8.592-0.609-11.138-4.172v-0.004v-3.313l27.033-6.66
		c3.873-1.094,3.576-3.819,3.576-3.819l-0.002-7.045c-2.676-11.289-20.189-10.075-20.189-10.075s-16.004,0.15-17.915,10.186v21.224
		c2.631,10.452,17.915,10.541,17.915,10.541s11.74,0.472,18.11-3.903L387.415,86.47z M386.535,65.324v3.296
		c0,0.536-0.447,0.804-1.037,0.921l-22.79,5.292v-9.285v-0.004c2.546-3.561,11.138-4.035,11.138-4.035
		S383.667,61.028,386.535,65.324"/>
	<path fill="#FFFFFF" d="M225.841,65.428c-3.46-4.144-10.597-4.072-10.597-4.072c-5.506-0.092-11.24,1.084-12.341,4.095v9.462v9.453
		c1.101,3.014,6.835,4.191,12.341,4.102c0,0,7.136,0.073,10.597-4.067l6.47,4.063c-2.439,5.042-9.161,7.479-18.251,7.479
		c-11.849,0-18.952-4.565-18.952-12.959l0.002-8.071l-0.002-8.071c0-8.393,7.102-12.959,18.952-12.959
		c9.09,0,15.812,2.417,18.251,7.459L225.841,65.428z"/>
	<path fill="#FFFFFF" d="M447.32,44.112v-4.837h2.05c0.842,0,1.346,0.509,1.346,1.062v1.028c0,0.387-0.263,0.765-0.718,0.945
		l0.814,1.802h-0.938l-0.765-1.699h-0.891v1.699H447.32z M448.218,40.074v1.545h1.086c0.288,0,0.521-0.165,0.521-0.449v-0.641
		c0-0.295-0.248-0.455-0.558-0.455H448.218z"/>
	<path fill="#FFFFFF" d="M453.831,41.693c0,2.631-2.133,4.764-4.764,4.764c-2.633,0-4.764-2.133-4.764-4.764
		c0-2.633,2.131-4.766,4.764-4.766C451.698,36.927,453.831,39.06,453.831,41.693 M449.067,37.588c-2.266,0-4.106,1.838-4.106,4.106
		c0,2.268,1.84,4.104,4.106,4.104c2.266,0,4.104-1.836,4.104-4.104C453.171,39.426,451.333,37.588,449.067,37.588"/>
	<path fill="#FFFFFF" d="M437.911,87.777V36.943h-7.778v19.144v0.011c-5.809-2.368-12.311-2.092-12.311-2.092
		s-15.156,0.088-17.765,10.3v23.472c0,0.506,6.745,8.165,18.96,8.165h0.021c12.557,0,18.873-7.654,18.873-8.16 M430.133,64.64
		v20.736c-3.232,3.424-11.161,3.311-11.161,3.311s-8.107,0.115-11.554-3.311V64.634c3.445-3.424,11.377-3.311,11.377-3.311
		S426.899,61.214,430.133,64.64"/>
</g>
<line fill="none" stroke="#FFFFFF" stroke-width="2" x1="470.36" y1="36.928" x2="470.36" y2="95.405"/>
</svg>
