<?xml version="1.0" encoding="utf-8"?>
<!-- Generator: Adobe Illustrator 17.1.0, SVG Export Plug-In . SVG Version: 6.00 Build 0)  -->
<!DOCTYPE svg PUBLIC "-//W3C//DTD SVG 1.1//EN" "http://www.w3.org/Graphics/SVG/1.1/DTD/svg11.dtd">
<svg version="1.1" xmlns="http://www.w3.org/2000/svg" xmlns:xlink="http://www.w3.org/1999/xlink" x="0px" y="0px"
	 viewBox="5 64 48 48" enable-background="new 5 64 48 48" xml:space="preserve">
<g id="Layer_2">
	<rect x="66" y="66" width="16" height="16"/>
</g>
<g id="Layer_1">
	<g id="logo">
		<polygon fill="#FFFFFF" points="74.6,72.5 74.2,68 72.9,68 72.4,73.1 72.4,73.9 72.9,79 74.2,79 74.6,74.5 79,74.2 79,72.8 		"/>
		<polygon fill="#FFFFFF" points="71.7,72.6 68,72.8 68,74.2 71.7,74.4 71.7,73.6 71.7,73.4 		"/>
		<path fill="#FFFFFF" d="M75.9,77.8v0.3h0.2c0.1,0,0.1,0,0.1-0.1v-0.1c0-0.1,0-0.1-0.1-0.1H75.9z M75.7,78.6v-0.9h0.4
			c0.2,0,0.3,0.1,0.3,0.2V78c0,0.1,0,0.1-0.1,0.2l0.2,0.3h-0.2L76,78.2h-0.2v0.3L75.7,78.6L75.7,78.6z"/>
		<path fill="#FFFFFF" d="M76,77.3c-0.4,0-0.8,0.3-0.8,0.8c0,0.4,0.3,0.8,0.8,0.8c0.4,0,0.8-0.3,0.8-0.8
			C76.8,77.7,76.5,77.3,76,77.3 M76.9,78.1c0,0.5-0.4,0.9-0.9,0.9c-0.5,0-0.9-0.4-0.9-0.9s0.4-0.9,0.9-0.9
			C76.5,77.2,76.9,77.6,76.9,78.1"/>
	</g>
</g>
<g id="Layer_4">
	<rect x="5" y="64" width="48" height="48"/>
</g>
<g id="Layer_3">
	<g id="logo_2_">
		<polygon fill="#FFFFFF" points="31.3,85.8 30.6,76 27.7,76 26.6,87.1 26.6,88.9 27.7,100 30.6,100 31.3,90.2 41,89.5 41,86.5 		
			"/>
		<polygon fill="#FFFFFF" points="25.1,86 17,86.5 17,89.5 25.1,90 25,88.2 25,87.8 		"/>
		<path fill="#FFFFFF" d="M34.2,97.4V98h0.4c0.1,0,0.2-0.1,0.2-0.2v-0.3c0-0.1-0.1-0.2-0.2-0.2H34.2z M33.8,99v-2h0.8
			c0.3,0,0.5,0.2,0.5,0.4v0.4c0,0.2-0.1,0.3-0.3,0.4l0.3,0.7h-0.4l-0.3-0.7h-0.4V99L33.8,99L33.8,99z"/>
		<path fill="#FFFFFF" d="M34.5,96.4c-0.9,0-1.7,0.8-1.7,1.7c0,0.9,0.7,1.7,1.7,1.7c0.9,0,1.7-0.7,1.7-1.7
			C36.2,97.1,35.4,96.4,34.5,96.4 M36.5,98.1c0,1.1-0.9,1.9-1.9,1.9s-1.9-0.9-1.9-1.9s0.9-1.9,1.9-1.9S36.5,97,36.5,98.1"/>
	</g>
</g>
</svg>
