<?xml version="1.0" encoding="utf-8"?>
<!-- Generator: Adobe Illustrator 17.1.0, SVG Export Plug-In . SVG Version: 6.00 Build 0)  -->
<!DOCTYPE svg PUBLIC "-//W3C//DTD SVG 1.1//EN" "http://www.w3.org/Graphics/SVG/1.1/DTD/svg11.dtd">
<svg version="1.1" id="Layer_1" xmlns="http://www.w3.org/2000/svg" xmlns:xlink="http://www.w3.org/1999/xlink" x="0px" y="0px"
	 width="149.76px" height="149.76px" viewBox="0 0 149.76 149.76" enable-background="new 0 0 149.76 149.76" xml:space="preserve">
<polygon fill="#303030" points="90.042,42.302 107.959,54 90.042,65.698 90.042,83.736 137.619,54 90.042,24.264 "/>
<polygon fill="#303030" points="56.381,42.302 74.298,54 56.381,65.698 56.381,83.736 103.959,54 56.381,24.264 "/>
<circle display="none" cx="75" cy="54" r="49.4"/>
<polygon fill="#303030" points="22.721,83.736 70.298,54 22.721,24.264 "/>
<g>
	<path d="M37.994,131.604l-1.417-3.553h-7.969l-1.416,3.553h-2.28l6.433-16.01h2.472l6.457,16.01H37.994z M32.593,117.658
		l-3.408,8.617h6.792L32.593,117.658z"/>
	<path d="M49.826,131.604v-1.632c-0.888,1.008-2.4,1.92-4.128,1.92c-2.424,0-3.696-1.176-3.696-3.696v-8.185h1.8v7.633
		c0,2.04,1.032,2.64,2.592,2.64c1.417,0,2.76-0.815,3.433-1.752v-8.521h1.8v11.593H49.826z"/>
	<path d="M55.585,129.18v-7.585h-1.92v-1.584h1.92v-3.169h1.8v3.169h2.352v1.584h-2.352v7.2c0,0.864,0.384,1.488,1.176,1.488
		c0.504,0,0.984-0.216,1.224-0.479l0.528,1.344c-0.456,0.432-1.104,0.744-2.16,0.744C56.449,131.892,55.585,130.907,55.585,129.18z"
		/>
	<path d="M61.608,125.795c0-3.36,2.208-6.072,5.737-6.072s5.736,2.712,5.736,6.072s-2.208,6.097-5.736,6.097
		S61.608,129.155,61.608,125.795z M71.186,125.795c0-2.353-1.368-4.464-3.84-4.464s-3.864,2.111-3.864,4.464
		c0,2.376,1.392,4.488,3.864,4.488S71.186,128.171,71.186,125.795z"/>
	<path d="M74.928,126.587v-1.584h5.76v1.584H74.928z"/>
	<path d="M83.28,131.604v-16.01h6.433c3.217,0,5.017,2.209,5.017,4.825s-1.849,4.824-5.017,4.824h-4.44v6.36H83.28z M92.665,120.419
		c0-1.801-1.296-3.049-3.192-3.049h-4.2v6.097h4.2C91.369,123.467,92.665,122.219,92.665,120.419z"/>
	<path d="M97.296,131.604v-16.01h1.801v16.01H97.296z"/>
	<path d="M109.944,131.604v-1.32c-0.96,1.057-2.28,1.608-3.841,1.608c-1.968,0-4.056-1.32-4.056-3.841
		c0-2.592,2.088-3.815,4.056-3.815c1.585,0,2.904,0.504,3.841,1.584v-2.089c0-1.56-1.248-2.448-2.929-2.448
		c-1.392,0-2.52,0.505-3.552,1.608l-0.84-1.248c1.248-1.296,2.736-1.92,4.632-1.92c2.448,0,4.488,1.104,4.488,3.912v7.969H109.944z
		 M109.944,129.155v-2.185c-0.696-0.96-1.92-1.439-3.192-1.439c-1.68,0-2.856,1.056-2.856,2.544c0,1.464,1.177,2.521,2.856,2.521
		C108.024,130.596,109.248,130.115,109.944,129.155z"/>
	<path d="M114.983,134.508c0.264,0.12,0.695,0.192,0.983,0.192c0.792,0,1.32-0.265,1.729-1.225l0.769-1.752l-4.849-11.713h1.944
		l3.864,9.505l3.84-9.505h1.969l-5.809,13.945c-0.696,1.68-1.872,2.328-3.408,2.352c-0.385,0-0.984-0.071-1.32-0.168
		L114.983,134.508z"/>
</g>
<g>
</g>
<g>
</g>
<g>
</g>
<g>
</g>
<g>
</g>
</svg>
