<?xml version="1.0" encoding="utf-8"?>
<!-- Generator: Adobe Illustrator 17.1.0, SVG Export Plug-In . SVG Version: 6.00 Build 0)  -->
<!DOCTYPE svg PUBLIC "-//W3C//DTD SVG 1.1//EN" "http://www.w3.org/Graphics/SVG/1.1/DTD/svg11.dtd">
<svg version="1.1" id="Layer_1" xmlns="http://www.w3.org/2000/svg" xmlns:xlink="http://www.w3.org/1999/xlink" x="0px" y="0px"
	 width="100px" height="100px" viewBox="0 0 100 100" enable-background="new 0 0 100 100" xml:space="preserve">
<g>
	<polygon opacity="0.5" points="10.3,23.4 23.2,10.3 50.3,37.6 77.3,10.3 89.2,22.3 62.7,49.2 90.3,77.1 77.8,89.7 51.3,62.9 
		24.3,90.3 11.3,77.1 37.3,50.8 	"/>
	<g opacity="0.5">
		<path fill="#FFFFFF" d="M77.3,10.3l11.9,12.1L62.7,49.2l27.5,27.9L77.8,89.7L51.3,62.9l-27,27.4l-13-13.2l25.9-26.3l-27-27.4
			l13-13.2l27,27.4L77.3,10.3 M23.2,6l-2.1,2.2l-13,13.2L6,23.4l2.1,2.1L33,50.8L9.2,75l-2.1,2.1l2.1,2.1l13,13.2l2.1,2.2l2.1-2.2
			l24.9-25.2l24.3,24.7l2.1,2.2l2.1-2.2l12.5-12.6l2.1-2.1L92.4,75L66.9,49.2l24.4-24.7l2.1-2.1l-2.1-2.1L79.4,8.1L77.3,6l-2.1,2.2
			L50.3,33.4L25.4,8.1L23.2,6L23.2,6z"/>
	</g>
</g>
</svg>
