<?xml version="1.0" encoding="utf-8"?>
<!-- Generator: Adobe Illustrator 17.1.0, SVG Export Plug-In . SVG Version: 6.00 Build 0)  -->
<!DOCTYPE svg PUBLIC "-//W3C//DTD SVG 1.1//EN" "http://www.w3.org/Graphics/SVG/1.1/DTD/svg11.dtd">
<svg version="1.1" xmlns="http://www.w3.org/2000/svg" xmlns:xlink="http://www.w3.org/1999/xlink" x="0px" y="0px" width="100px"
	 height="100px" viewBox="0 0 100 100" enable-background="new 0 0 100 100" xml:space="preserve">
<symbol  id="Illuminated_Blue_Rounded_Org" viewBox="-19.969 -10.484 39.938 20.969">
	<g>
		
			<linearGradient id="SVGID_1_" gradientUnits="userSpaceOnUse" x1="0.1094" y1="-9.4844" x2="0.1094" y2="9.4844" gradientTransform="matrix(1 0 0 1 -0.1096 0)">
			<stop  offset="0" style="stop-color:#1B0080"/>
			<stop  offset="0.618" style="stop-color:#120058"/>
			<stop  offset="0.6292" style="stop-color:#1B016E"/>
			<stop  offset="0.9831" style="stop-color:#000C66"/>
		</linearGradient>
		<path fill="url(#SVGID_1_)" d="M18.969,5.885c0,1.979-1.62,3.6-3.6,3.6h-30.738c-1.98,0-3.6-1.62-3.6-3.6V-5.884
			c0-1.98,1.62-3.601,3.6-3.601h30.738c1.98,0,3.6,1.62,3.6,3.601V5.885z"/>
		
			<linearGradient id="SVGID_2_" gradientUnits="userSpaceOnUse" x1="0.1094" y1="-9.4844" x2="0.1094" y2="9.4844" gradientTransform="matrix(1 0 0 1 -0.1096 0)">
			<stop  offset="0" style="stop-color:#11004B;stop-opacity:0.22"/>
			<stop  offset="0.5" style="stop-color:#080028"/>
			<stop  offset="0.5549" style="stop-color:#162850;stop-opacity:0.9044"/>
			<stop  offset="0.614" style="stop-color:#234C74;stop-opacity:0.8016"/>
			<stop  offset="0.6766" style="stop-color:#2D6991;stop-opacity:0.6928"/>
			<stop  offset="0.7426" style="stop-color:#3580A8;stop-opacity:0.5778"/>
			<stop  offset="0.8137" style="stop-color:#3B90B8;stop-opacity:0.4541"/>
			<stop  offset="0.8935" style="stop-color:#3E9AC2;stop-opacity:0.3153"/>
			<stop  offset="1" style="stop-color:#3F9DC5;stop-opacity:0.13"/>
		</linearGradient>
		<path fill="url(#SVGID_2_)" d="M18.969,5.885c0,1.979-1.62,3.6-3.6,3.6h-30.738c-1.98,0-3.6-1.62-3.6-3.6V-5.884
			c0-1.98,1.62-3.601,3.6-3.601h30.738c1.98,0,3.6,1.62,3.6,3.601V5.885z"/>
		
			<radialGradient id="SVGID_3_" cx="0.1094" cy="0" r="14.9963" gradientTransform="matrix(1 0 0 0.5 -0.1096 0)" gradientUnits="userSpaceOnUse">
			<stop  offset="0" style="stop-color:#3F9DC5;stop-opacity:0"/>
			<stop  offset="0.1633" style="stop-color:#3C91BF;stop-opacity:0.1143"/>
			<stop  offset="0.4622" style="stop-color:#366FB0;stop-opacity:0.3236"/>
			<stop  offset="0.8604" style="stop-color:#2B3A98;stop-opacity:0.6023"/>
			<stop  offset="1" style="stop-color:#27268F;stop-opacity:0.7"/>
		</radialGradient>
		<path opacity="0.51" fill="url(#SVGID_3_)" d="M18.969,5.885c0,1.979-1.62,3.6-3.6,3.6h-30.738c-1.98,0-3.6-1.62-3.6-3.6V-5.884
			c0-1.98,1.62-3.601,3.6-3.601h30.738c1.98,0,3.6,1.62,3.6,3.601V5.885z"/>
		
			<linearGradient id="SVGID_4_" gradientUnits="userSpaceOnUse" x1="0.1094" y1="9.4844" x2="0.1094" y2="-9.4844" gradientTransform="matrix(1 0 0 1 -0.1096 0)">
			<stop  offset="0" style="stop-color:#FFFFFF;stop-opacity:0.77"/>
			<stop  offset="0.45" style="stop-color:#FFFFFF;stop-opacity:0"/>
			<stop  offset="0.4541" style="stop-color:#F6F6F7;stop-opacity:0.0012"/>
			<stop  offset="0.4762" style="stop-color:#C9C8CD;stop-opacity:0.0076"/>
			<stop  offset="0.5012" style="stop-color:#9F9DA6;stop-opacity:0.0149"/>
			<stop  offset="0.528" style="stop-color:#7A7783;stop-opacity:0.0227"/>
			<stop  offset="0.5573" style="stop-color:#5A5766;stop-opacity:0.0312"/>
			<stop  offset="0.5896" style="stop-color:#3F3B4D;stop-opacity:0.0406"/>
			<stop  offset="0.626" style="stop-color:#2A2539;stop-opacity:0.0512"/>
			<stop  offset="0.6686" style="stop-color:#19142A;stop-opacity:0.0636"/>
			<stop  offset="0.7212" style="stop-color:#0D091F;stop-opacity:0.0789"/>
			<stop  offset="0.795" style="stop-color:#070219;stop-opacity:0.1004"/>
			<stop  offset="1" style="stop-color:#050017;stop-opacity:0.16"/>
		</linearGradient>
		<path opacity="0.7" fill="url(#SVGID_4_)" d="M18.969,5.885c0,1.979-1.62,3.6-3.6,3.6h-30.738c-1.98,0-3.6-1.62-3.6-3.6V-5.884
			c0-1.98,1.62-3.601,3.6-3.601h30.738c1.98,0,3.6,1.62,3.6,3.601V5.885z"/>
		<g opacity="0.49">
			<path fill="#FFFFFF" d="M-15.369-7.05c-1.605,0.435-1.965,0.796-2.4,2.401c0.004-0.412,0.008-0.823,0.012-1.235
				c0,3.923,0,7.846,0,11.769c-0.004-0.412-0.008-0.823-0.012-1.235c0.817,3.015,3.486,2.4,5.982,2.4c3.765,0,7.531,0,11.296,0
				c3.866,0,7.731,0,11.597,0c2.62,0,5.806,0.759,6.663-2.4c-0.004,0.412-0.008,0.823-0.012,1.235c0-3.923,0-7.846,0-11.769
				c0.004,0.412,0.008,0.823,0.012,1.235c-0.774-2.856-2.991-2.401-5.349-2.401c-3.65,0-7.3,0-10.95,0
				C-4.143-7.05-9.756-7.05-15.369-7.05c-0.019,0-0.019-2.469,0-2.469c9.788,0,19.576,0,29.363,0c4.306,0,3.787,3.386,3.787,6.686
				c0,3.103,1.631,11.256-2.412,12.352c-3.441,0.933-8.423,0-11.961,0c-5.801,0-11.602,0-17.402,0c-4.306,0-3.787-3.385-3.787-6.685
				c0-3.103-1.631-11.256,2.412-12.353C-15.559-9.467-15.144-7.111-15.369-7.05z"/>
		</g>
		<path fill="none" stroke="#21008F" stroke-width="2" stroke-miterlimit="1" d="M18.969,5.885c0,1.979-1.62,3.6-3.6,3.6h-30.738
			c-1.98,0-3.6-1.62-3.6-3.6V-5.884c0-1.98,1.62-3.601,3.6-3.601h30.738c1.98,0,3.6,1.62,3.6,3.601V5.885z"/>
		<g opacity="0.58">
			<path fill="#0D003B" d="M18.969,6.091c-0.834,5.131-8.057,3.6-11.861,3.6c-6.298,0-12.596,0-18.894,0
				c-2.92,0-7.185,0.439-7.185-3.805c0-3.971-0.039-7.944,0.001-11.914c0.047-4.737,6.283-3.661,9.356-3.661c6.41,0,12.82,0,19.23,0
				c3.073,0,9.308-1.076,9.355,3.661c0.04,3.971,0.001,7.943,0.001,11.914c0,0.233-0.004,0.233-0.004,0
				c0-4.152,0.483-8.6-0.182-12.698c-0.581-3.574-7.637-2.466-9.973-2.466c-5.596,0-11.191,0-16.787,0
				c-3.464,0-8.92-1.176-10.81,2.466C-19.638-5.169-18.967-1.754-18.967,0c0,2.258-0.18,4.582,0.182,6.813
				c0.6,3.691,8.444,2.465,10.81,2.465c5.596,0,11.191,0,16.787,0c3.626,0,9.373,1.224,10.157-3.6
				C18.947,5.812,18.991,5.956,18.969,6.091z"/>
		</g>
	</g>
</symbol>
<symbol  id="Illuminated_Orange_Box_Org" viewBox="-19.969 -10.484 39.938 20.969">
	<g>
		<linearGradient id="SVGID_5_" gradientUnits="userSpaceOnUse" x1="-2.000004e-004" y1="-9.4844" x2="-1.999996e-004" y2="9.4844">
			<stop  offset="0" style="stop-color:#E68519"/>
			<stop  offset="0.618" style="stop-color:#E8A03D"/>
			<stop  offset="0.6292" style="stop-color:#E8A13E"/>
			<stop  offset="0.9831" style="stop-color:#E79C3B"/>
		</linearGradient>
		<polygon fill="url(#SVGID_5_)" points="18.969,9.484 -18.969,9.484 -18.969,-9.484 18.969,-9.484 		"/>
		<linearGradient id="SVGID_6_" gradientUnits="userSpaceOnUse" x1="-2.000004e-004" y1="-9.4844" x2="-1.999996e-004" y2="9.4844">
			<stop  offset="0" style="stop-color:#DE922A"/>
			<stop  offset="0.618" style="stop-color:#D27025"/>
			<stop  offset="0.6292" style="stop-color:#DA8F2A"/>
			<stop  offset="0.9831" style="stop-color:#FFFFFF;stop-opacity:0.23"/>
		</linearGradient>
		<polygon fill="url(#SVGID_6_)" points="18.969,9.484 -18.969,9.484 -18.969,-9.484 18.969,-9.484 		"/>
		<linearGradient id="SVGID_7_" gradientUnits="userSpaceOnUse" x1="-2.000004e-004" y1="9.4844" x2="-1.999996e-004" y2="-9.4844">
			<stop  offset="0" style="stop-color:#FFFFFF;stop-opacity:0.77"/>
			<stop  offset="0.2033" style="stop-color:#FFFFFF;stop-opacity:0.65"/>
			<stop  offset="0.3448" style="stop-color:#FFFFFF;stop-opacity:0.65"/>
			<stop  offset="0.3462" style="stop-color:#FFFFFF;stop-opacity:0.65"/>
			<stop  offset="0.511" style="stop-color:#FFFFFF;stop-opacity:0"/>
			<stop  offset="0.5133" style="stop-color:#FEFDFA;stop-opacity:7.709789e-004"/>
			<stop  offset="0.5356" style="stop-color:#FAE7D1;stop-opacity:0.0081"/>
			<stop  offset="0.5603" style="stop-color:#F5D4AC;stop-opacity:0.0161"/>
			<stop  offset="0.5875" style="stop-color:#F1C38C;stop-opacity:0.025"/>
			<stop  offset="0.6176" style="stop-color:#EEB570;stop-opacity:0.0349"/>
			<stop  offset="0.6515" style="stop-color:#EBA95A;stop-opacity:0.046"/>
			<stop  offset="0.6912" style="stop-color:#E9A149;stop-opacity:0.059"/>
			<stop  offset="0.7403" style="stop-color:#E89B3E;stop-opacity:0.075"/>
			<stop  offset="0.809" style="stop-color:#E79737;stop-opacity:0.0975"/>
			<stop  offset="1" style="stop-color:#E79635;stop-opacity:0.16"/>
		</linearGradient>
		<polygon opacity="0.7" fill="url(#SVGID_7_)" points="18.969,9.484 -18.969,9.484 -18.969,-9.484 18.969,-9.484 		"/>
		<g opacity="0.49">
			<path fill="#FFFFFF" d="M-17.757-8.284c0,5.523,0,11.046,0,16.569c-0.004-0.412-0.008-0.823-0.012-1.235
				c11.846,0,23.692,0,35.538,0c-0.004,0.412-0.008,0.823-0.012,1.235c0-5.523,0-11.046,0-16.569
				c0.004,0.412,0.008,0.823,0.012,1.235c-11.846,0-23.692,0-35.538,0c-0.019,0-0.019-2.469,0-2.469c11.846,0,23.692,0,35.538,0
				c0.015,0,0.012,1.17,0.012,1.235c0,5.523,0,11.046,0,16.569c0,0.064,0.002,1.235-0.012,1.235c-11.846,0-23.692,0-35.538,0
				c-0.015,0-0.012-1.17-0.012-1.235c0-5.523,0-11.046,0-16.569C-17.782-9.681-17.757-9.681-17.757-8.284z"/>
		</g>
		<polygon fill="none" stroke="#E8A13F" stroke-width="2" stroke-miterlimit="1" points="18.969,9.484 -18.969,9.484 
			-18.969,-9.484 18.969,-9.484 		"/>
		<g opacity="0.58">
			<path fill="#E8A13E" d="M18.969,9.69c-12.646,0-25.292,0-37.938,0c-0.002,0-0.002-0.195-0.002-0.206c0-6.323,0-12.646,0-18.969
				c0-0.011,0-0.206,0.002-0.206c12.646,0,25.292,0,37.938,0c0.002,0,0.002,0.195,0.002,0.206c0,6.323,0,12.646,0,18.969
				c0,0.233-0.004,0.233-0.004,0c0-5.145,0-10.29,0-15.435c0-0.91,0.347-3.328-0.302-3.328c-1.813,0-3.625,0-5.438,0
				c-10.721,0-21.441,0-32.162,0c-0.066,0-0.033,13.722-0.033,15.229c0,0.91-0.347,3.328,0.302,3.328c1.813,0,3.625,0,5.438,0
				c10.732,0,21.464,0,32.196,0C18.972,9.279,18.972,9.69,18.969,9.69z"/>
		</g>
	</g>
</symbol>
<g id="Layer_10">
</g>
<g id="Layer_5">
</g>
<g id="Layer_9">
</g>
<g id="Layer_1">
</g>
<g id="Layer_3">
	<g id="Reload">
	</g>
	<g id="Layer_11">
	</g>
	<g id="Layer_6">
	</g>
</g>
<g id="Layer_12">
	<g id="FontSizeIcons">
		<g display="none">
			<g display="inline">
				<path fill="#CCCCCC" d="M58.946,82.774V74.01h7.304l-4.564-12.599H38.132L33.567,74.01h7.395v8.764H16.039V74.01h7.303
					L41.51,25.99h-6.938v-8.764h20.541L76.657,74.01h7.304v8.764H58.946z M50.183,30.098h-0.64l-8.308,23.371h17.528L50.183,30.098z
					"/>
			</g>
		</g>
		<g>
			<g>
				<path fill="#CCCCCC" d="M56.468,73.692v-6.335h5.279l-3.3-9.107H41.421l-3.3,9.107h5.346v6.335H25.45v-6.335h5.28l13.133-34.713
					h-5.016v-6.335h14.849l15.574,41.048h5.279v6.335H56.468z M50.132,35.613H49.67l-6.005,16.895h12.671L50.132,35.613z"/>
			</g>
		</g>
		<g display="none">
			<g display="inline">
				<path fill="#CCCCCC" d="M55.097,68.669v-4.992h4.16L56.656,56.5H43.24l-2.601,7.176h4.212v4.992H30.655v-4.992h4.16
					l10.349-27.353h-3.952v-4.992h11.7l12.272,32.345h4.16v4.992H55.097z M50.104,38.664H49.74l-4.732,13.313h9.984L50.104,38.664z"
					/>
			</g>
		</g>
	</g>
</g>
<g id="Layer_7" display="none">
</g>
<g id="Layer_8">
</g>
<g id="Layer_2">
</g>
</svg>
