<?xml version="1.0" encoding="utf-8"?>
<!-- Generator: Adobe Illustrator 17.0.1, SVG Export Plug-In . SVG Version: 6.00 Build 0)  -->
<!DOCTYPE svg PUBLIC "-//W3C//DTD SVG 1.1//EN" "http://www.w3.org/Graphics/SVG/1.1/DTD/svg11.dtd">
<svg version="1.1" id="Layer_1" xmlns="http://www.w3.org/2000/svg" xmlns:xlink="http://www.w3.org/1999/xlink" x="0px" y="0px"
	 width="151px" height="151px" viewBox="0 0 151 151" enable-background="new 0 0 151 151" xml:space="preserve">
<g>
	<g>
		<g>
			<path fill="#FFFFFF" stroke="#010101" stroke-width="2" stroke-miterlimit="10" d="M37.89,104.998v-3.456h2.88l-1.8-4.968h-9.287
				l-1.8,4.968h2.916v3.456h-9.827v-3.456h2.88l7.163-18.934h-2.735v-3.456h8.099l8.495,22.39h2.88v3.456H37.89z M34.435,84.229
				h-0.252l-3.275,9.215h6.911L34.435,84.229z"/>
		</g>
	</g>
	<g>
		<g>
			<path fill="#FFFFFF" stroke="#010101" stroke-width="2" stroke-miterlimit="10" d="M67.549,104.998v-6.336h5.279l-3.3-9.107
				H52.502l-3.3,9.107h5.346v6.336H36.531v-6.336h5.28l13.133-34.713h-5.016v-6.335h14.849l15.574,41.048h5.279v6.336H67.549z
				 M61.213,66.919h-0.462l-6.005,16.895h12.671L61.213,66.919z"/>
		</g>
	</g>
	<g>
		<g>
			<path fill="#FFFFFF" stroke="#010101" stroke-width="2" stroke-miterlimit="10" d="M104.479,104.998v-8.641h7.199l-4.499-12.419
				h-23.22L79.46,96.357h7.289v8.641H62.181v-8.641h7.199L87.289,49.02h-6.84v-8.64h20.249l21.239,55.977h7.2v8.641H104.479z
				 M95.839,53.07h-0.63l-8.189,23.04h17.279L95.839,53.07z"/>
		</g>
	</g>
</g>
</svg>
