<?xml version="1.0" encoding="utf-8"?>
<!-- Generator: Adobe Illustrator 17.1.0, SVG Export Plug-In . SVG Version: 6.00 Build 0)  -->
<!DOCTYPE svg PUBLIC "-//W3C//DTD SVG 1.1//EN" "http://www.w3.org/Graphics/SVG/1.1/DTD/svg11.dtd">
<svg version="1.1" xmlns="http://www.w3.org/2000/svg" xmlns:xlink="http://www.w3.org/1999/xlink" x="0px" y="0px" width="150px"
	 height="150px" viewBox="0 0 150 150" enable-background="new 0 0 150 150" xml:space="preserve">
<g id="BG_Transp">
	<rect fill="none" width="150" height="150"/>
</g>
<g id="Layer_1">
	<g id="Pause_9_">
		<g>
			<rect x="85.43" y="21.5" fill="#303030" width="21.729" height="66.827"/>
			<rect x="42.359" y="21.5" fill="#303030" width="21.729" height="66.827"/>
		</g>
	</g>
	<g>
		<path d="M10.873,131.604v-16.01h6.433c3.216,0,5.017,2.209,5.017,4.825s-1.848,4.824-5.017,4.824h-4.44v6.36H10.873z
			 M20.258,120.419c0-1.801-1.296-3.049-3.192-3.049h-4.2v6.097h4.2C18.962,123.467,20.258,122.219,20.258,120.419z"/>
		<path d="M31.658,131.604v-1.32c-0.96,1.057-2.28,1.608-3.84,1.608c-1.968,0-4.057-1.32-4.057-3.841
			c0-2.592,2.088-3.815,4.057-3.815c1.584,0,2.904,0.504,3.84,1.584v-2.089c0-1.56-1.248-2.448-2.928-2.448
			c-1.392,0-2.521,0.505-3.552,1.608l-0.84-1.248c1.248-1.296,2.736-1.92,4.632-1.92c2.448,0,4.489,1.104,4.489,3.912v7.969H31.658z
			 M31.658,129.155v-2.185c-0.696-0.96-1.92-1.439-3.192-1.439c-1.68,0-2.856,1.056-2.856,2.544c0,1.464,1.176,2.521,2.856,2.521
			C29.737,130.596,30.961,130.115,31.658,129.155z"/>
		<path d="M44.882,131.604v-1.632c-0.888,1.008-2.4,1.92-4.128,1.92c-2.424,0-3.696-1.176-3.696-3.696v-8.185h1.8v7.633
			c0,2.04,1.032,2.64,2.592,2.64c1.417,0,2.76-0.815,3.433-1.752v-8.521h1.8v11.593H44.882z"/>
		<path d="M49.272,130.067l0.936-1.296c0.768,0.888,2.232,1.656,3.816,1.656c1.776,0,2.736-0.841,2.736-1.992
			c0-2.809-7.177-1.08-7.177-5.377c0-1.8,1.56-3.336,4.32-3.336c1.968,0,3.36,0.744,4.296,1.68l-0.84,1.248
			c-0.696-0.84-1.968-1.464-3.457-1.464c-1.584,0-2.568,0.792-2.568,1.824c0,2.544,7.176,0.864,7.176,5.377
			c0,1.943-1.56,3.504-4.56,3.504C52.057,131.892,50.449,131.315,49.272,130.067z"/>
		<path d="M60.769,125.795c0-3.36,2.4-6.072,5.713-6.072c3.504,0,5.568,2.736,5.568,6.217v0.456h-9.385
			c0.144,2.184,1.68,4.008,4.176,4.008c1.32,0,2.664-0.528,3.576-1.464l0.864,1.176c-1.152,1.152-2.712,1.776-4.608,1.776
			C63.241,131.892,60.769,129.419,60.769,125.795z M66.457,121.211c-2.472,0-3.696,2.088-3.792,3.864h7.608
			C70.25,123.347,69.098,121.211,66.457,121.211z"/>
		<path d="M92.641,131.604l-1.416-3.553h-7.969l-1.416,3.553h-2.28l6.433-16.01h2.473l6.456,16.01H92.641z M87.24,117.658
			l-3.408,8.617h6.793L87.24,117.658z"/>
		<path d="M104.473,131.604v-1.632c-0.889,1.008-2.4,1.92-4.129,1.92c-2.424,0-3.696-1.176-3.696-3.696v-8.185h1.801v7.633
			c0,2.04,1.032,2.64,2.592,2.64c1.416,0,2.761-0.815,3.433-1.752v-8.521h1.8v11.593H104.473z"/>
		<path d="M118.273,131.604v-1.729c-0.864,1.177-2.28,2.017-3.913,2.017c-3.023,0-5.16-2.305-5.16-6.072
			c0-3.696,2.112-6.097,5.16-6.097c1.561,0,2.977,0.768,3.913,2.04v-6.169h1.8v16.01H118.273z M118.273,128.459v-5.256
			c-0.648-1.009-2.04-1.872-3.48-1.872c-2.328,0-3.721,1.92-3.721,4.488s1.393,4.464,3.721,4.464
			C116.233,130.283,117.625,129.468,118.273,128.459z"/>
		<path d="M123.36,117.154c0-0.672,0.552-1.225,1.2-1.225c0.672,0,1.224,0.553,1.224,1.225s-0.552,1.2-1.224,1.2
			C123.912,118.354,123.36,117.826,123.36,117.154z M123.672,131.604v-11.593h1.801v11.593H123.672z"/>
		<path d="M128.399,125.795c0-3.36,2.208-6.072,5.736-6.072s5.737,2.712,5.737,6.072s-2.209,6.097-5.737,6.097
			S128.399,129.155,128.399,125.795z M137.977,125.795c0-2.353-1.368-4.464-3.841-4.464c-2.472,0-3.864,2.111-3.864,4.464
			c0,2.376,1.393,4.488,3.864,4.488C136.608,130.283,137.977,128.171,137.977,125.795z"/>
	</g>
</g>
</svg>
