<?xml version="1.0" encoding="utf-8"?>
<!-- Generator: Adobe Illustrator 17.1.0, SVG Export Plug-In . SVG Version: 6.00 Build 0)  -->
<!DOCTYPE svg PUBLIC "-//W3C//DTD SVG 1.1//EN" "http://www.w3.org/Graphics/SVG/1.1/DTD/svg11.dtd">
<svg version="1.1" id="Layer_1" xmlns="http://www.w3.org/2000/svg" xmlns:xlink="http://www.w3.org/1999/xlink" x="0px" y="0px"
	 width="150px" height="150px" viewBox="0 0 150 150" enable-background="new 0 0 150 150" xml:space="preserve">
<g>
	<polygon fill="#303030" points="53.2,90 110.8,54 53.2,18 	"/>
	<polygon fill="none" stroke="#333333" stroke-miterlimit="10" points="53.2,90 110.8,54 53.2,18 	"/>
</g>
<g>
	<path d="M21.001,131.604v-16.01h6.433c3.216,0,5.017,2.209,5.017,4.825s-1.848,4.824-5.017,4.824h-4.44v6.36H21.001z
		 M30.386,120.419c0-1.801-1.296-3.049-3.192-3.049h-4.2v6.097h4.2C29.09,123.467,30.386,122.219,30.386,120.419z"/>
	<path d="M35.017,131.604v-16.01h1.8v16.01H35.017z"/>
	<path d="M47.665,131.604v-1.32c-0.96,1.057-2.28,1.608-3.84,1.608c-1.968,0-4.056-1.32-4.056-3.841
		c0-2.592,2.088-3.815,4.056-3.815c1.584,0,2.904,0.504,3.84,1.584v-2.089c0-1.56-1.248-2.448-2.928-2.448
		c-1.392,0-2.521,0.505-3.552,1.608l-0.84-1.248c1.248-1.296,2.736-1.92,4.632-1.92c2.448,0,4.489,1.104,4.489,3.912v7.969H47.665z
		 M47.665,129.155v-2.185c-0.696-0.96-1.92-1.439-3.192-1.439c-1.68,0-2.856,1.056-2.856,2.544c0,1.464,1.176,2.521,2.856,2.521
		C45.745,130.596,46.969,130.115,47.665,129.155z"/>
	<path d="M52.704,134.508c0.264,0.12,0.696,0.192,0.984,0.192c0.792,0,1.32-0.265,1.728-1.225l0.768-1.752l-4.849-11.713h1.944
		l3.864,9.505l3.84-9.505h1.968l-5.809,13.945c-0.696,1.68-1.872,2.328-3.408,2.352c-0.384,0-0.984-0.071-1.32-0.168L52.704,134.508
		z"/>
	<path d="M82.513,131.604l-1.416-3.553h-7.969l-1.416,3.553h-2.28l6.433-16.01h2.473l6.456,16.01H82.513z M77.112,117.658
		l-3.408,8.617h6.793L77.112,117.658z"/>
	<path d="M94.345,131.604v-1.632c-0.889,1.008-2.4,1.92-4.129,1.92c-2.424,0-3.696-1.176-3.696-3.696v-8.185h1.801v7.633
		c0,2.04,1.032,2.64,2.592,2.64c1.416,0,2.761-0.815,3.433-1.752v-8.521h1.8v11.593H94.345z"/>
	<path d="M108.145,131.604v-1.729c-0.864,1.177-2.28,2.017-3.913,2.017c-3.023,0-5.16-2.305-5.16-6.072
		c0-3.696,2.112-6.097,5.16-6.097c1.561,0,2.977,0.768,3.913,2.04v-6.169h1.8v16.01H108.145z M108.145,128.459v-5.256
		c-0.648-1.009-2.04-1.872-3.48-1.872c-2.328,0-3.721,1.92-3.721,4.488s1.393,4.464,3.721,4.464
		C106.104,130.283,107.496,129.468,108.145,128.459z"/>
	<path d="M113.232,117.154c0-0.672,0.552-1.225,1.2-1.225c0.672,0,1.224,0.553,1.224,1.225s-0.552,1.2-1.224,1.2
		C113.784,118.354,113.232,117.826,113.232,117.154z M113.544,131.604v-11.593h1.801v11.593H113.544z"/>
	<path d="M118.271,125.795c0-3.36,2.208-6.072,5.736-6.072s5.737,2.712,5.737,6.072s-2.209,6.097-5.737,6.097
		S118.271,129.155,118.271,125.795z M127.849,125.795c0-2.353-1.368-4.464-3.841-4.464c-2.472,0-3.864,2.111-3.864,4.464
		c0,2.376,1.393,4.488,3.864,4.488C126.48,130.283,127.849,128.171,127.849,125.795z"/>
</g>
</svg>
