<?xml version="1.0" encoding="utf-8"?>
<!-- Generator: Adobe Illustrator 17.1.0, SVG Export Plug-In . SVG Version: 6.00 Build 0)  -->
<!DOCTYPE svg PUBLIC "-//W3C//DTD SVG 1.1//EN" "http://www.w3.org/Graphics/SVG/1.1/DTD/svg11.dtd">
<svg version="1.1" id="Layer_1" xmlns="http://www.w3.org/2000/svg" xmlns:xlink="http://www.w3.org/1999/xlink" x="0px" y="0px"
	 width="150px" height="150px" viewBox="0 0 150 150" enable-background="new 0 0 150 150" xml:space="preserve">
<g>
	<path fill="#303030" d="M74.723,81.311c15.112,0,27.406-12.117,27.406-27.01c0-14.894-12.295-27.01-27.406-27.01
		c-6.483,0-12.43,2.245-17.121,5.971l13.587,11.58L35.4,50.049L35.469,14.4l12.568,10.712c7.068-6.28,16.419-10.11,26.686-10.11
		c22.022,0,39.877,17.597,39.877,39.3S96.745,93.6,74.723,93.6c-17.276,0-31.982-10.825-37.523-25.965l12.746-1.856
		C54.336,74.94,63.777,81.311,74.723,81.311z"/>
</g>
<g>
	<path d="M15.603,131.604l-4.081-6.36H8.33v6.36H6.337v-16.01h6.433c2.928,0,5.017,1.872,5.017,4.825
		c0,2.88-1.968,4.464-4.152,4.656l4.32,6.528H15.603z M15.722,120.419c0-1.801-1.296-3.049-3.192-3.049H8.33v6.121h4.201
		C14.426,123.491,15.722,122.219,15.722,120.419z"/>
	<path d="M19.465,125.795c0-3.36,2.4-6.072,5.713-6.072c3.504,0,5.568,2.736,5.568,6.217v0.456h-9.385
		c0.144,2.184,1.68,4.008,4.176,4.008c1.32,0,2.664-0.528,3.576-1.464l0.864,1.176c-1.152,1.152-2.712,1.776-4.608,1.776
		C21.937,131.892,19.465,129.419,19.465,125.795z M25.153,121.211c-2.472,0-3.696,2.088-3.792,3.864h7.608
		C28.946,123.347,27.794,121.211,25.153,121.211z"/>
	<path d="M32.641,130.067l0.936-1.296c0.768,0.888,2.232,1.656,3.816,1.656c1.776,0,2.736-0.841,2.736-1.992
		c0-2.809-7.177-1.08-7.177-5.377c0-1.8,1.56-3.336,4.32-3.336c1.968,0,3.36,0.744,4.296,1.68l-0.84,1.248
		c-0.696-0.84-1.968-1.464-3.457-1.464c-1.584,0-2.568,0.792-2.568,1.824c0,2.544,7.176,0.864,7.176,5.377
		c0,1.943-1.56,3.504-4.56,3.504C35.425,131.892,33.817,131.315,32.641,130.067z"/>
	<path d="M45.169,129.18v-7.585h-1.92v-1.584h1.92v-3.169h1.8v3.169h2.352v1.584h-2.352v7.2c0,0.864,0.384,1.488,1.176,1.488
		c0.504,0,0.984-0.216,1.224-0.479l0.528,1.344c-0.456,0.432-1.104,0.744-2.16,0.744C46.033,131.892,45.169,130.907,45.169,129.18z"
		/>
	<path d="M59.113,131.604v-1.32c-0.96,1.057-2.28,1.608-3.84,1.608c-1.968,0-4.056-1.32-4.056-3.841
		c0-2.592,2.088-3.815,4.056-3.815c1.584,0,2.904,0.504,3.84,1.584v-2.089c0-1.56-1.248-2.448-2.928-2.448
		c-1.392,0-2.521,0.505-3.552,1.608l-0.84-1.248c1.248-1.296,2.736-1.92,4.632-1.92c2.448,0,4.489,1.104,4.489,3.912v7.969H59.113z
		 M59.113,129.155v-2.185c-0.696-0.96-1.92-1.439-3.192-1.439c-1.68,0-2.856,1.056-2.856,2.544c0,1.464,1.176,2.521,2.856,2.521
		C57.193,130.596,58.417,130.115,59.113,129.155z"/>
	<path d="M64.513,131.604v-11.593h1.8v1.872c0.937-1.225,2.28-2.112,3.865-2.112v1.849c-0.216-0.049-0.432-0.072-0.72-0.072
		c-1.104,0-2.616,0.912-3.145,1.848v8.209H64.513z"/>
	<path d="M72.792,129.18v-7.585h-1.92v-1.584h1.92v-3.169h1.8v3.169h2.352v1.584h-2.352v7.2c0,0.864,0.384,1.488,1.176,1.488
		c0.504,0,0.984-0.216,1.224-0.479l0.528,1.344c-0.456,0.432-1.104,0.744-2.16,0.744C73.656,131.892,72.792,130.907,72.792,129.18z"
		/>
	<path d="M97.177,131.604l-1.416-3.553h-7.969l-1.416,3.553h-2.28l6.433-16.01h2.473l6.456,16.01H97.177z M91.776,117.658
		l-3.408,8.617h6.793L91.776,117.658z"/>
	<path d="M109.009,131.604v-1.632c-0.889,1.008-2.4,1.92-4.129,1.92c-2.424,0-3.696-1.176-3.696-3.696v-8.185h1.801v7.633
		c0,2.04,1.032,2.64,2.592,2.64c1.416,0,2.761-0.815,3.433-1.752v-8.521h1.8v11.593H109.009z"/>
	<path d="M122.809,131.604v-1.729c-0.864,1.177-2.28,2.017-3.913,2.017c-3.023,0-5.16-2.305-5.16-6.072
		c0-3.696,2.112-6.097,5.16-6.097c1.561,0,2.977,0.768,3.913,2.04v-6.169h1.8v16.01H122.809z M122.809,128.459v-5.256
		c-0.648-1.009-2.04-1.872-3.48-1.872c-2.328,0-3.721,1.92-3.721,4.488s1.393,4.464,3.721,4.464
		C120.769,130.283,122.16,129.468,122.809,128.459z"/>
	<path d="M127.896,117.154c0-0.672,0.552-1.225,1.2-1.225c0.672,0,1.224,0.553,1.224,1.225s-0.552,1.2-1.224,1.2
		C128.447,118.354,127.896,117.826,127.896,117.154z M128.207,131.604v-11.593h1.801v11.593H128.207z"/>
	<path d="M132.935,125.795c0-3.36,2.208-6.072,5.736-6.072s5.737,2.712,5.737,6.072s-2.209,6.097-5.737,6.097
		S132.935,129.155,132.935,125.795z M142.512,125.795c0-2.353-1.368-4.464-3.841-4.464c-2.472,0-3.864,2.111-3.864,4.464
		c0,2.376,1.393,4.488,3.864,4.488C141.144,130.283,142.512,128.171,142.512,125.795z"/>
</g>
</svg>
