<?xml version="1.0" encoding="utf-8"?>
<!-- Generator: Adobe Illustrator 16.2.0, SVG Export Plug-In . SVG Version: 6.00 Build 0)  -->
<!DOCTYPE svg PUBLIC "-//W3C//DTD SVG 1.1//EN" "http://www.w3.org/Graphics/SVG/1.1/DTD/svg11.dtd">
<svg version="1.1" id="Layer_1" xmlns="http://www.w3.org/2000/svg" xmlns:xlink="http://www.w3.org/1999/xlink" x="0px" y="0px"
	 width="80px" height="80px" viewBox="0 0 80 80" enable-background="new 0 0 80 80" xml:space="preserve">
<g id="muteButton_3_">
	<polygon points="8,29 8,51 21.68,51 40,65 40,15 21.678,29 	"/>
	<polygon display="none" points="44,30.739 48.549,26.189 58,35.64 67.451,26.189 71.621,30.359 62.359,39.62 72,49.261 
		67.641,53.62 58.379,44.359 48.928,53.81 44.379,49.261 53.451,40.189 	"/>
	<path d="M56.302,14l-3.275,5.154c5.961,2.568,10.48,11.08,10.48,20.87c0,9.7-4.442,18.149-10.328,20.796L56.381,66
		c7.701-3.933,13.186-14.075,13.186-25.976C69.566,28.076,64.043,17.899,56.302,14z"/>
	<path d="M49.929,24.029l-3.204,5.044c2.641,2.354,4.429,6.427,4.429,10.951c0,4.389-1.682,8.354-4.198,10.74l3.162,5.105
		c4.271-3.375,7.099-9.213,7.099-15.846C57.216,33.29,54.307,27.381,49.929,24.029z"/>
</g>
</svg>
